#tb 0: 1/10
0,          0,          0,        1,  3932160, 0xafab48e8
0,          1,          1,        1,  3932160, 0x47a47bf9
0,          2,          2,        1,  3932160, 0x9ffb4d10
0,          3,          3,        1,  3932160, 0x5eb6786b
0,          4,          4,        1,  3932160, 0x38b6ed92
0,          5,          5,        1,  3932160, 0x7ffa3289
0,          6,          6,        1,  3932160, 0x7da7699a
0,          7,          7,        1,  3932160, 0xf26fcddd
0,          8,          8,        1,  3932160, 0xea566b0b
0,          9,          9,        1,  3932160, 0xb8f23669
0,         10,         10,        1,  3932160, 0x9738365d
0,         14,         14,        1,  3932160, 0x82051cc1
0,         30,         30,        1,  3932160, 0xd9ff1cc1
0,         31,         31,        1,  3932160, 0xb006d146
0,         32,         32,        1,  3932160, 0x79381d19
0,         33,         33,        1,  3932160, 0xefd735fc
0,         34,         34,        1,  3932160, 0x4c4983b4
0,         35,         35,        1,  3932160, 0x44dc88b7
0,         36,         36,        1,  3932160, 0xd6c86d49
0,         37,         37,        1,  3932160, 0xe288e81f
0,         38,         38,        1,  3932160, 0x0b57c172
0,         39,         39,        1,  3932160, 0x0b683895
0,         40,         40,        1,  3932160, 0xdb1e21bb
0,         41,         41,        1,  3932160, 0x25440443
0,         42,         42,        1,  3932160, 0xe07e071d
